 <svg
          width="72"
          height="51"
          viewBox="0 0 72 51"
          fill="none"
          xmlns="http://www.w3.org/2000/svg"
        >
          <path
            d="M52.2388 3.7066C52.422 3.7066 52.5703 3.7758 52.6859 3.91419C52.7391 3.97274 52.7771 4.05107 52.8 4.14992C52.8091 4.18338 52.8129 4.23205 52.8129 4.29288V5.15823H47.4657V6.00607H51.2084V7.28052H47.4741L47.4703 7.28433V8.18312H52.8083L52.8121 8.18465V9.03555C52.8121 9.16482 52.7642 9.28571 52.6692 9.39825C52.6099 9.45757 52.5673 9.49179 52.5422 9.50395C52.457 9.55642 52.3536 9.58304 52.2297 9.58304H46.4787C46.4399 9.58304 46.3859 9.57315 46.3182 9.55034C46.1753 9.49635 46.0681 9.4013 45.9973 9.26367C45.9631 9.18459 45.9472 9.10018 45.9472 9.00969V6.04257C45.9441 5.89962 45.9434 5.43197 45.9434 4.64191V4.25334C45.9434 4.16057 45.9722 4.06399 46.0323 3.96286C46.0939 3.87237 46.1669 3.80697 46.2513 3.76363C46.3137 3.73626 46.3601 3.72029 46.3905 3.71725C46.4072 3.71268 46.4331 3.70812 46.4665 3.70508H52.2395L52.2388 3.7066Z"
            fill="white"
          />
          <path
            d="M54.3424 3.70703H58.622C59.1984 3.70703 59.6972 3.79676 60.1155 3.97622C60.1999 4.01044 60.2653 4.03857 60.3132 4.06138C60.3839 4.10016 60.4584 4.14807 60.5375 4.20054C60.9116 4.42866 61.177 4.75032 61.3352 5.16778C61.4196 5.38906 61.4621 5.6263 61.4621 5.87648V5.93123C61.4621 6.23159 61.399 6.51675 61.272 6.78365C61.2325 6.85969 61.1831 6.94409 61.1245 7.03686C61.0736 7.10454 61.0135 7.17601 60.942 7.25205C60.9086 7.29236 60.8751 7.32734 60.8409 7.35775L60.7991 7.39958L60.7648 7.42543L60.7017 7.47638C60.6515 7.51212 60.5884 7.55394 60.5109 7.6026C60.5002 7.60792 60.4888 7.61477 60.4774 7.62313C60.4014 7.66344 60.3329 7.69918 60.2713 7.72883C60.2402 7.74328 60.2105 7.75697 60.1824 7.77066C60.0721 7.81704 59.9573 7.85734 59.8364 7.89384C60.1846 8.25428 60.4242 8.51585 60.5542 8.67858C60.6409 8.77743 60.7268 8.87401 60.8112 8.96982C60.9709 9.1546 61.1253 9.32797 61.2713 9.48842C61.3154 9.52948 61.342 9.5599 61.3511 9.57663H59.5277C59.4235 9.57663 59.3421 9.56598 59.2836 9.54393C59.2668 9.5348 59.2516 9.52644 59.2372 9.51807C59.2235 9.50971 59.2083 9.49906 59.1908 9.48842C59.1315 9.44964 59.0653 9.38272 58.9923 9.28995C58.7247 8.97134 58.4418 8.62459 58.1437 8.24819L57.9954 8.05808C57.9871 8.05808 57.9711 8.06113 57.946 8.0657C57.7711 8.0657 57.2464 8.06874 56.372 8.07406H55.2998V9.03217C55.2998 9.21315 55.2222 9.36523 55.0679 9.48918C54.9751 9.55381 54.8686 9.58499 54.7477 9.58499H53.7812V4.29863C53.7812 4.20282 53.7927 4.12678 53.8155 4.06975C53.8261 4.03629 53.8459 3.99674 53.8748 3.95188C53.8938 3.92451 53.9181 3.89714 53.9463 3.8728C54.0649 3.76255 54.1964 3.70779 54.3424 3.70779V3.70703ZM55.3005 5.23089V6.56008H58.7566C59.0273 6.56008 59.2326 6.5137 59.3733 6.42093C59.4752 6.3563 59.5497 6.27037 59.5976 6.16315C59.6364 6.08179 59.6562 5.98902 59.6562 5.88484C59.6562 5.67953 59.5619 5.50768 59.3733 5.37004C59.3452 5.35027 59.3155 5.33279 59.2843 5.3191C59.276 5.31606 59.2676 5.31149 59.2585 5.30541C59.209 5.28108 59.1315 5.2575 59.0273 5.23773C58.9938 5.23773 58.9475 5.23545 58.8882 5.23013H55.3005V5.23089Z"
            fill="white"
          />
          <path
            d="M65.5404 3.70584H66.7776C67.0285 3.70584 67.2369 3.81001 67.4065 4.01837C67.4506 4.07996 67.5076 4.17577 67.5753 4.30504C67.5867 4.32177 67.5966 4.3385 67.6049 4.35523C67.6308 4.39477 67.8475 4.77421 68.2551 5.49432C68.3699 5.69963 68.503 5.93307 68.652 6.19465C69.5774 7.82877 70.0519 8.66447 70.0778 8.70097L70.5713 9.58228H69.2717C68.9288 9.58228 68.6748 9.42107 68.5128 9.0979C68.3965 8.90171 68.3121 8.75419 68.2589 8.65838C68.2148 8.57778 68.1882 8.53444 68.1828 8.52911H64.1489C64.1428 8.52911 64.1367 8.53215 64.1291 8.53672C64.1222 8.5428 64.1177 8.5542 64.1146 8.57093L63.7344 9.23781C63.5634 9.46821 63.3352 9.58304 63.0516 9.58304H61.7559V9.57467C62.3771 8.47588 62.9185 7.52157 63.3801 6.71402C63.7458 6.06995 64.0424 5.54907 64.2667 5.15214C64.615 4.53621 64.7983 4.21531 64.815 4.18946C64.8598 4.10581 64.9078 4.0313 64.9579 3.96666C65.1214 3.79253 65.3153 3.70508 65.5404 3.70508V3.70584ZM66.1609 4.95899L64.8401 7.28433H67.4817C66.6179 5.77111 66.1776 4.99549 66.1609 4.95899Z"
            fill="white"
          />
          <path
            d="M11.0275 12.5138C12.2563 10.974 13.7962 10.2037 15.6477 10.2037H45.1873V4.67402C45.1873 4.11664 45.0725 3.60946 44.8436 3.15017C44.1714 1.93808 43.1806 1.33203 41.8697 1.33203H15.5489C13.5338 1.33203 11.5598 1.77382 9.62607 2.65894C8.92118 2.96995 8.24973 3.33875 7.61099 3.76458C7.08707 4.07558 6.34947 4.6573 5.39896 5.50972C2.46607 8.49128 1 12.0143 1 16.0771V20.8205C1 24.0971 1.95811 27.0468 3.8751 29.6679C4.23554 30.1431 4.74349 30.7165 5.39896 31.3887C6.05443 31.9947 6.61942 32.4784 7.09467 32.8388C9.73253 34.6569 12.5339 35.5664 15.4995 35.5664H35.3089V23.628H45.1379V14.9228H23.3149C23.0526 14.9228 22.7659 14.9555 22.4549 15.0209C21.6033 15.3159 20.9965 15.7912 20.636 16.4467C20.2756 16.8725 20.0954 17.5447 20.0954 18.4618V22.4919H34.6686V26.719H15.3033C14.9428 26.719 14.4189 26.6126 13.7308 26.3989C13.3871 26.2681 13.0183 26.0879 12.6251 25.8582C12.2974 25.6453 11.9126 25.3419 11.4701 24.9488C10.4055 23.7854 9.87244 22.4752 9.87244 21.0167V15.8802C9.87244 14.684 10.2572 13.5624 11.0275 12.5138Z"
            fill="url(#paint0_linear_3434_155)"
            stroke="#161621"
            stroke-width="1.39839"
            stroke-miterlimit="10"
          />
          <path
            d="M41.6028 15.0957H67.9236C69.2345 15.0957 70.2254 15.7025 70.8976 16.9146C71.1272 17.3731 71.242 17.8811 71.242 18.4385V23.9682H41.7024C39.8508 23.9682 38.311 24.7384 37.0822 26.2783C36.3119 27.3269 35.9271 28.4492 35.9271 29.6454V34.7819C35.9271 36.2404 36.4594 37.5506 37.5247 38.714C37.9673 39.1071 38.3521 39.4105 38.6798 39.6234C39.0729 39.8531 39.4417 40.0333 39.7854 40.1641C40.4736 40.377 40.9975 40.4835 41.358 40.4835H60.7233V36.2564H46.1501V32.2262C46.1501 31.3091 46.3303 30.6369 46.6907 30.2111C47.0511 29.5556 47.6572 29.0804 48.5096 28.7861C48.8206 28.7207 49.108 28.688 49.3696 28.688H71.1926V46.1614C71.1926 47.0625 70.7911 47.8815 69.9881 48.6191C69.3653 49.0943 68.6772 49.3316 67.9236 49.3316H41.5542C38.5886 49.3316 35.7872 48.4221 33.1494 46.6032C32.6741 46.2428 32.1091 45.7592 31.4537 45.1531C30.7982 44.4817 30.2902 43.9076 29.9298 43.4323C28.0128 40.8112 27.0547 37.8623 27.0547 34.585V29.8415C27.0547 25.7787 28.5208 22.2557 31.4537 19.2741C32.4042 18.4217 33.141 17.8408 33.6657 17.529C34.3044 17.1032 34.9766 16.7344 35.6808 16.4234C37.6145 15.5383 39.5885 15.0965 41.6036 15.0965L41.6028 15.0957Z"
            fill="url(#paint1_linear_3434_155)"
            stroke="#161621"
            stroke-width="1.39839"
            stroke-miterlimit="10"
          />
          <defs>
            <linearGradient
              id="paint0_linear_3434_155"
              x1="89.5"
              y1="56.832"
              x2="-2.97772"
              y2="9.02679"
              gradientUnits="userSpaceOnUse"
            >
              <stop stop-color="#41067A" />
              <stop offset="0.673791" stop-color="#7A06D1" />
            </linearGradient>
            <linearGradient
              id="paint1_linear_3434_155"
              x1="69.0547"
              y1="44.597"
              x2="24.9047"
              y2="18.7711"
              gradientUnits="userSpaceOnUse"
            >
              <stop stop-color="#41067A" />
              <stop offset="0.859293" stop-color="#7A06D1" />
            </linearGradient>
          </defs>
        </svg>